Coordinates
version=1
nRows=12
nColumns=63
inDegrees=yes

Units are S.I. units (second, meters, Newtons, ...)
If the header above contains a line with 'inDegrees', this indicates whether rotational values are in degrees (yes) or radians (no).

endheader
time	pelvis_tilt	pelvis_list	pelvis_rotation	pelvis_tx	pelvis_ty	pelvis_tz	hip_flexion_r	hip_adduction_r	hip_rotation_r	knee_angle_r	knee_angle_r_beta	ankle_angle_r	subtalar_angle_r	mtp_angle_r	hip_flexion_l	hip_adduction_l	hip_rotation_l	knee_angle_l	knee_angle_l_beta	ankle_angle_l	subtalar_angle_l	mtp_angle_l	L5_S1_Flex_Ext	L5_S1_Lat_Bending	L5_S1_axial_rotation	L4_L5_Flex_Ext	L4_L5_Lat_Bending	L4_L5_axial_rotation	L3_L4_Flex_Ext	L3_L4_Lat_Bending	L3_L4_axial_rotation	L2_L3_Flex_Ext	L2_L3_Lat_Bending	L2_L3_axial_rotation	L1_L2_Flex_Ext	L1_L2_Lat_Bending	L1_L2_axial_rotation	L1_T12_Flex_Ext	L1_T12_Lat_Bending	L1_T12_axial_rotation	Abs_r3	Abs_r2	Abs_r1	Abs_t1	Abs_t2	neck_flexion	neck_bending	neck_rotation	arm_flex_r	arm_add_r	arm_rot_r	elbow_flex_r	pro_sup_r	wrist_flex_r	wrist_dev_r	arm_flex_l	arm_add_l	arm_rot_l	elbow_flex_l	pro_sup_l	wrist_flex_l	wrist_dev_l
1.883333	-11.964241	-13.701411	89.073396	0.245345	0.955602	0.344501	28.272737	-14.004756	-1.120617	26.182441	0.456970	27.307718	1.419861	0.000000	22.100601	12.051943	-18.877298	14.688269	0.256359	19.505697	6.442601	0.000000	-0.813482	-1.159590	1.383040	-1.510718	-1.542255	1.469480	-1.336470	-2.819428	1.469480	-0.929729	-2.819428	1.210160	-0.755399	-2.364636	1.123720	-0.464824	-1.796205	1.037280	-5.810621	-13.117516	7.692051	0.000000	0.000000	-23.155701	5.008618	5.750642	11.924217	-5.436484	31.285607	95.204023	55.749094	-10.067414	32.719874	11.621053	-14.677575	19.387254	97.329083	87.387762	-14.275758	13.025309
1.900000	-12.015848	-13.566079	89.238803	0.245149	0.955769	0.343762	28.028929	-14.128563	-1.187447	26.161197	0.456599	27.424137	1.299578	0.000000	21.833949	12.174983	-18.822893	14.592314	0.254684	19.591742	6.643442	0.000000	-0.817565	-1.167825	1.398995	-1.518300	-1.553207	1.486433	-1.343178	-2.839449	1.486433	-0.934395	-2.839449	1.224121	-0.759191	-2.381428	1.136684	-0.467157	-1.808961	1.049247	-5.839786	-13.210667	7.780793	0.000000	0.000000	-23.471559	5.259677	5.375259	12.554711	-5.222525	31.525265	93.705349	55.944827	-8.931880	32.549539	12.018943	-14.502378	19.776844	96.726642	87.739252	-14.074240	12.331166
1.916667	-12.052633	-13.472179	89.365388	0.245079	0.955913	0.343100	27.845578	-14.217005	-1.250534	26.139639	0.456223	27.527168	1.195296	0.000000	21.629787	12.255541	-18.825878	14.509728	0.253243	19.682450	6.921301	0.000000	-0.816061	-1.175810	1.427616	-1.515507	-1.563827	1.516842	-1.340706	-2.858865	1.516842	-0.932676	-2.858865	1.249164	-0.757794	-2.397712	1.159938	-0.466297	-1.821330	1.070712	-5.829041	-13.300999	7.939973	0.000000	0.000000	-23.748167	5.454100	4.924468	13.099897	-5.051915	31.573885	92.556432	55.894463	-8.275035	32.373758	12.350865	-14.345976	20.197771	96.168660	88.027991	-13.861312	11.628075
1.933333	-12.058634	-13.406930	89.468321	0.245110	0.956057	0.342572	27.707149	-14.265482	-1.345687	26.115655	0.455804	27.625131	1.136005	0.000000	21.478663	12.284716	-18.872123	14.444664	0.252107	19.784830	7.266118	0.000000	-0.811440	-1.180911	1.459401	-1.506925	-1.570612	1.550613	-1.333114	-2.871267	1.550613	-0.927395	-2.871267	1.276976	-0.753503	-2.408114	1.185763	-0.463657	-1.829231	1.094551	-5.796033	-13.358702	8.116750	0.000000	0.000000	-23.979201	5.539776	4.461637	13.589250	-4.933544	31.464212	91.794210	55.553697	-8.225270	32.220591	12.578790	-14.202885	20.586605	95.656753	88.259357	-13.681533	10.780549
1.950000	-12.020942	-13.374175	89.533256	0.245250	0.956208	0.342217	27.613858	-14.252168	-1.456186	26.069306	0.454995	27.705703	1.127739	0.000000	21.393385	12.242160	-18.970916	14.411904	0.251535	19.907755	7.665889	0.000000	-0.802864	-1.181889	1.496739	-1.490998	-1.571913	1.590286	-1.319025	-2.873646	1.590286	-0.917593	-2.873646	1.309647	-0.745539	-2.410109	1.216101	-0.458756	-1.830747	1.122554	-5.734776	-13.369770	8.324415	0.000000	0.000000	-24.172298	5.518826	3.986188	14.015436	-4.897248	31.220065	91.458576	54.951427	-8.873837	32.107490	12.696472	-14.049499	20.910703	95.173256	88.444599	-13.565245	9.703745
1.966667	-11.961989	-13.342767	89.551154	0.245540	0.956415	0.342052	27.532446	-14.195684	-1.579168	25.988073	0.453577	27.778147	1.191147	0.000000	21.331992	12.151472	-19.128928	14.387735	0.251113	20.035831	8.105231	0.000000	-0.795061	-1.182196	1.534011	-1.476509	-1.572321	1.629887	-1.306206	-2.874391	1.629887	-0.908676	-2.874391	1.342260	-0.738294	-2.410734	1.246384	-0.454298	-1.831222	1.150508	-5.679044	-13.373238	8.531711	0.000000	0.000000	-24.337652	5.426092	3.550269	14.433529	-4.976747	30.948798	91.544212	53.284210	-10.452806	32.027236	12.718110	-13.902761	21.108564	94.788178	88.594267	-13.545385	8.700187
1.983333	-11.873305	-13.314918	89.529292	0.245973	0.956709	0.342058	27.443526	-14.087676	-1.718597	25.837895	0.450956	27.830386	1.329616	0.000000	21.293138	12.010592	-19.315208	14.371072	0.250823	20.158194	8.535433	0.000000	-0.786727	-1.181573	1.570672	-1.461030	-1.571492	1.668839	-1.292513	-2.872876	1.668839	-0.899150	-2.872876	1.374338	-0.730554	-2.409463	1.276171	-0.449536	-1.830256	1.178004	-5.619510	-13.366186	8.735604	0.000000	0.000000	-24.507150	5.297587	3.143649	14.834507	-5.217166	30.722906	92.016940	51.021638	-12.847534	32.009122	12.675086	-13.755039	21.178860	94.471527	88.703629	-13.621607	7.753194
2.000000	-11.778413	-13.270258	89.453668	0.246599	0.957152	0.342210	27.316928	-13.946214	-1.863460	25.594975	0.446717	27.862545	1.574631	0.000000	21.238355	11.843825	-19.530297	14.325446	0.250026	20.241066	8.945351	0.000000	-0.780910	-1.183799	1.606462	-1.450228	-1.574453	1.706866	-1.282957	-2.878289	1.706866	-0.892502	-2.878289	1.405655	-0.725153	-2.414003	1.305251	-0.446212	-1.833705	1.204847	-5.577962	-13.391372	8.934662	0.000000	0.000000	-24.681080	5.173264	2.772564	15.208297	-5.580681	30.430539	92.797209	49.355077	-15.029585	32.043519	12.601870	-13.616196	21.101569	94.245572	88.806269	-13.779459	7.059352
2.016667	-11.656870	-13.206308	89.347975	0.247348	0.957755	0.342497	27.127344	-13.760509	-2.045585	25.235847	0.440449	27.863622	1.932162	0.000000	21.167410	11.642892	-19.727623	14.262912	0.248935	20.279299	9.276089	0.000000	-0.777818	-1.186089	1.635158	-1.444486	-1.577499	1.737355	-1.277877	-2.883858	1.737355	-0.888968	-2.883858	1.430763	-0.722282	-2.418673	1.328566	-0.444445	-1.837252	1.226368	-5.555877	-13.417280	9.094258	0.000000	0.000000	-24.862913	5.054063	2.438613	15.627181	-6.083934	30.125600	93.860215	48.646686	-16.669594	32.113866	12.504386	-13.491610	20.882024	94.109890	88.843257	-14.006796	6.616656
2.033333	-11.540669	-13.133746	89.166446	0.248263	0.958510	0.342877	26.892989	-13.546591	-2.199164	24.752567	0.432014	27.808611	2.395978	0.000000	21.075746	11.431250	-19.957087	14.147776	0.246925	20.249659	9.551322	0.000000	-0.774633	-1.192162	1.662716	-1.438572	-1.585576	1.766636	-1.272645	-2.898623	1.766636	-0.885329	-2.898623	1.454877	-0.719325	-2.431057	1.350957	-0.442626	-1.846659	1.247037	-5.533129	-13.485978	9.247529	0.000000	0.000000	-25.059756	4.962788	2.142014	16.100837	-6.711676	29.805331	95.117428	49.010840	-17.350726	32.220614	12.385397	-13.438455	20.551614	94.077366	88.832444	-14.256360	6.428359
2.050000	-11.400503	-13.039278	88.942529	0.249265	0.959417	0.343335	26.587505	-13.285980	-2.337539	24.148917	0.421478	27.681513	2.918901	0.000000	20.951405	11.188135	-20.209299	13.996988	0.244294	20.175428	9.798000	0.000000	-0.773957	-1.197754	1.677960	-1.437316	-1.593013	1.782832	-1.271534	-2.912219	1.782832	-0.884556	-2.912219	1.468215	-0.718697	-2.442459	1.363342	-0.442239	-1.855321	1.258470	-5.528300	-13.549230	9.332309	0.000000	0.000000	-25.254257	4.865061	1.905206	16.707883	-7.442821	29.566439	96.551238	50.289948	-17.238365	32.363711	12.211773	-13.462464	20.106374	94.171107	88.736454	-14.580928	6.467513
2.066667	-11.252463	-12.913336	88.708024	0.250261	0.960461	0.343848	26.194587	-13.016766	-2.521157	23.438490	0.409079	27.485345	3.544317	0.000000	20.781229	10.951216	-20.403498	13.806397	0.240967	20.041544	9.927158	0.000000	-0.777733	-1.203603	1.663044	-1.444328	-1.600792	1.766985	-1.277738	-2.926441	1.766985	-0.888871	-2.926441	1.455164	-0.722203	-2.454388	1.351223	-0.444397	-1.864382	1.247283	-5.555271	-13.615401	9.249353	0.000000	0.000000	-25.419690	4.704660	1.775712	17.515130	-8.241384	29.491018	98.083224	52.450605	-16.296708	32.519064	11.921644	-13.583880	19.463944	94.426034	88.604822	-14.839030	6.648026
